<?xml version="1.0" encoding="UTF-8"?>
<svg xmlns="http://www.w3.org/2000/svg" xmlns:xlink="http://www.w3.org/1999/xlink" width="1920" height="1080" viewBox="0 0 1920 1080">
<defs>
<g>
<g id="glyph-0-0">
<path d="M 8.75 0.140625 C 7.644531 0.140625 6.625 -0.046875 5.6875 -0.421875 C 4.757812 -0.796875 3.945312 -1.316406 3.25 -1.984375 C 2.5625 -2.660156 2.023438 -3.445312 1.640625 -4.34375 C 1.265625 -5.238281 1.078125 -6.222656 1.078125 -7.296875 C 1.078125 -8.359375 1.265625 -9.335938 1.640625 -10.234375 C 2.023438 -11.140625 2.5625 -11.925781 3.25 -12.59375 C 3.945312 -13.257812 4.757812 -13.78125 5.6875 -14.15625 C 6.625 -14.53125 7.640625 -14.71875 8.734375 -14.71875 C 9.835938 -14.71875 10.851562 -14.53125 11.78125 -14.15625 C 12.71875 -13.789062 13.53125 -13.269531 14.21875 -12.59375 C 14.90625 -11.925781 15.4375 -11.140625 15.8125 -10.234375 C 16.195312 -9.335938 16.390625 -8.351562 16.390625 -7.28125 C 16.390625 -6.21875 16.195312 -5.234375 15.8125 -4.328125 C 15.4375 -3.429688 14.90625 -2.644531 14.21875 -1.96875 C 13.53125 -1.300781 12.71875 -0.78125 11.78125 -0.40625 C 10.851562 -0.0390625 9.84375 0.140625 8.75 0.140625 Z M 8.734375 -1.234375 C 9.609375 -1.234375 10.414062 -1.382812 11.15625 -1.6875 C 11.90625 -1.988281 12.554688 -2.414062 13.109375 -2.96875 C 13.660156 -3.519531 14.085938 -4.160156 14.390625 -4.890625 C 14.703125 -5.617188 14.859375 -6.421875 14.859375 -7.296875 C 14.859375 -8.160156 14.703125 -8.957031 14.390625 -9.6875 C 14.085938 -10.414062 13.660156 -11.054688 13.109375 -11.609375 C 12.554688 -12.160156 11.90625 -12.585938 11.15625 -12.890625 C 10.414062 -13.191406 9.609375 -13.34375 8.734375 -13.34375 C 7.867188 -13.34375 7.0625 -13.191406 6.3125 -12.890625 C 5.5625 -12.585938 4.910156 -12.160156 4.359375 -11.609375 C 3.804688 -11.054688 3.375 -10.414062 3.0625 -9.6875 C 2.757812 -8.957031 2.609375 -8.160156 2.609375 -7.296875 C 2.609375 -6.421875 2.757812 -5.617188 3.0625 -4.890625 C 3.375 -4.160156 3.804688 -3.519531 4.359375 -2.96875 C 4.910156 -2.414062 5.5625 -1.988281 6.3125 -1.6875 C 7.0625 -1.382812 7.867188 -1.234375 8.734375 -1.234375 Z "/>
</g>
<g id="glyph-0-1">
<path d="M 6.59375 0.09375 C 5.65625 0.09375 4.835938 -0.078125 4.140625 -0.421875 C 3.441406 -0.765625 2.898438 -1.285156 2.515625 -1.984375 C 2.140625 -2.679688 1.953125 -3.550781 1.953125 -4.59375 L 1.953125 -10.9375 L 3.4375 -10.9375 L 3.4375 -4.75 C 3.4375 -3.582031 3.722656 -2.703125 4.296875 -2.109375 C 4.867188 -1.523438 5.679688 -1.234375 6.734375 -1.234375 C 7.492188 -1.234375 8.148438 -1.390625 8.703125 -1.703125 C 9.265625 -2.015625 9.695312 -2.46875 10 -3.0625 C 10.3125 -3.664062 10.46875 -4.378906 10.46875 -5.203125 L 10.46875 -10.9375 L 11.9375 -10.9375 L 11.9375 0 L 10.515625 0 L 10.515625 -3 L 10.75 -2.453125 C 10.40625 -1.648438 9.867188 -1.023438 9.140625 -0.578125 C 8.410156 -0.128906 7.5625 0.09375 6.59375 0.09375 Z "/>
</g>
<g id="glyph-0-2">
<path d="M 2.0625 0 L 2.0625 -10.9375 L 3.484375 -10.9375 L 3.484375 -7.953125 L 3.34375 -8.484375 C 3.644531 -9.304688 4.15625 -9.9375 4.875 -10.375 C 5.601562 -10.820312 6.503906 -11.046875 7.578125 -11.046875 L 7.578125 -9.59375 C 7.515625 -9.601562 7.453125 -9.609375 7.390625 -9.609375 C 7.335938 -9.617188 7.28125 -9.625 7.21875 -9.625 C 6.082031 -9.625 5.1875 -9.269531 4.53125 -8.5625 C 3.875 -7.863281 3.546875 -6.875 3.546875 -5.59375 L 3.546875 0 Z "/>
</g>
<g id="glyph-0-3">
</g>
<g id="glyph-0-4">
<path d="M 6.40625 0.140625 C 5.3125 0.140625 4.269531 -0.0351562 3.28125 -0.390625 C 2.289062 -0.753906 1.519531 -1.21875 0.96875 -1.78125 L 1.578125 -2.953125 C 2.097656 -2.453125 2.789062 -2.03125 3.65625 -1.6875 C 4.519531 -1.351562 5.429688 -1.1875 6.390625 -1.1875 C 7.304688 -1.1875 8.050781 -1.300781 8.625 -1.53125 C 9.195312 -1.757812 9.617188 -2.066406 9.890625 -2.453125 C 10.171875 -2.847656 10.3125 -3.285156 10.3125 -3.765625 C 10.3125 -4.328125 10.148438 -4.78125 9.828125 -5.125 C 9.503906 -5.46875 9.078125 -5.738281 8.546875 -5.9375 C 8.015625 -6.144531 7.425781 -6.320312 6.78125 -6.46875 C 6.144531 -6.625 5.503906 -6.789062 4.859375 -6.96875 C 4.222656 -7.144531 3.640625 -7.375 3.109375 -7.65625 C 2.578125 -7.945312 2.148438 -8.332031 1.828125 -8.8125 C 1.503906 -9.300781 1.34375 -9.929688 1.34375 -10.703125 C 1.34375 -11.421875 1.53125 -12.082031 1.90625 -12.6875 C 2.289062 -13.289062 2.875 -13.78125 3.65625 -14.15625 C 4.445312 -14.53125 5.460938 -14.71875 6.703125 -14.71875 C 7.523438 -14.71875 8.335938 -14.597656 9.140625 -14.359375 C 9.953125 -14.128906 10.648438 -13.8125 11.234375 -13.40625 L 10.703125 -12.1875 C 10.085938 -12.601562 9.425781 -12.90625 8.71875 -13.09375 C 8.019531 -13.289062 7.347656 -13.390625 6.703125 -13.390625 C 5.816406 -13.390625 5.085938 -13.269531 4.515625 -13.03125 C 3.941406 -12.789062 3.519531 -12.472656 3.25 -12.078125 C 2.988281 -11.691406 2.859375 -11.25 2.859375 -10.75 C 2.859375 -10.175781 3.019531 -9.71875 3.34375 -9.375 C 3.664062 -9.03125 4.09375 -8.757812 4.625 -8.5625 C 5.15625 -8.363281 5.738281 -8.1875 6.375 -8.03125 C 7.019531 -7.875 7.660156 -7.707031 8.296875 -7.53125 C 8.929688 -7.351562 9.515625 -7.125 10.046875 -6.84375 C 10.585938 -6.5625 11.019531 -6.179688 11.34375 -5.703125 C 11.664062 -5.222656 11.828125 -4.609375 11.828125 -3.859375 C 11.828125 -3.148438 11.632812 -2.488281 11.25 -1.875 C 10.863281 -1.269531 10.269531 -0.78125 9.46875 -0.40625 C 8.664062 -0.0390625 7.644531 0.140625 6.40625 0.140625 Z "/>
</g>
<g id="glyph-0-5">
<path d="M 6.53125 0.09375 C 5.457031 0.09375 4.503906 -0.140625 3.671875 -0.609375 C 2.835938 -1.085938 2.175781 -1.75 1.6875 -2.59375 C 1.195312 -3.4375 0.953125 -4.398438 0.953125 -5.484375 C 0.953125 -6.566406 1.195312 -7.523438 1.6875 -8.359375 C 2.175781 -9.191406 2.835938 -9.847656 3.671875 -10.328125 C 4.503906 -10.804688 5.457031 -11.046875 6.53125 -11.046875 C 7.601562 -11.046875 8.554688 -10.804688 9.390625 -10.328125 C 10.234375 -9.847656 10.894531 -9.191406 11.375 -8.359375 C 11.851562 -7.535156 12.09375 -6.578125 12.09375 -5.484375 C 12.09375 -4.398438 11.851562 -3.4375 11.375 -2.59375 C 10.894531 -1.75 10.234375 -1.085938 9.390625 -0.609375 C 8.546875 -0.140625 7.59375 0.09375 6.53125 0.09375 Z M 6.53125 -1.203125 C 7.3125 -1.203125 8.007812 -1.378906 8.625 -1.734375 C 9.238281 -2.097656 9.722656 -2.601562 10.078125 -3.25 C 10.429688 -3.894531 10.609375 -4.640625 10.609375 -5.484375 C 10.609375 -6.335938 10.429688 -7.082031 10.078125 -7.71875 C 9.722656 -8.363281 9.238281 -8.859375 8.625 -9.203125 C 8.007812 -9.554688 7.3125 -9.734375 6.53125 -9.734375 C 5.757812 -9.734375 5.066406 -9.554688 4.453125 -9.203125 C 3.835938 -8.859375 3.347656 -8.363281 2.984375 -7.71875 C 2.628906 -7.082031 2.453125 -6.335938 2.453125 -5.484375 C 2.453125 -4.640625 2.628906 -3.894531 2.984375 -3.25 C 3.347656 -2.601562 3.832031 -2.097656 4.4375 -1.734375 C 5.050781 -1.378906 5.75 -1.203125 6.53125 -1.203125 Z "/>
</g>
<g id="glyph-0-6">
<path d="M 2.0625 0 L 2.0625 -15.453125 L 3.546875 -15.453125 L 3.546875 0 Z "/>
</g>
<g id="glyph-0-7">
<path d="M 5.515625 0.09375 C 4.492188 0.09375 3.703125 -0.179688 3.140625 -0.734375 C 2.585938 -1.296875 2.3125 -2.082031 2.3125 -3.09375 L 2.3125 -13.34375 L 3.796875 -13.34375 L 3.796875 -3.171875 C 3.796875 -2.523438 3.957031 -2.023438 4.28125 -1.671875 C 4.601562 -1.328125 5.070312 -1.15625 5.6875 -1.15625 C 6.332031 -1.15625 6.875 -1.34375 7.3125 -1.71875 L 7.828125 -0.65625 C 7.546875 -0.40625 7.195312 -0.21875 6.78125 -0.09375 C 6.363281 0.03125 5.941406 0.09375 5.515625 0.09375 Z M 0.359375 -9.71875 L 0.359375 -10.9375 L 7.125 -10.9375 L 7.125 -9.71875 Z "/>
</g>
<g id="glyph-0-8">
<path d="M 2.0625 0 L 2.0625 -10.9375 L 3.546875 -10.9375 L 3.546875 0 Z M 2.8125 -13.359375 C 2.507812 -13.359375 2.253906 -13.457031 2.046875 -13.65625 C 1.835938 -13.863281 1.734375 -14.113281 1.734375 -14.40625 C 1.734375 -14.695312 1.835938 -14.941406 2.046875 -15.140625 C 2.253906 -15.347656 2.507812 -15.453125 2.8125 -15.453125 C 3.125 -15.453125 3.378906 -15.351562 3.578125 -15.15625 C 3.785156 -14.96875 3.890625 -14.726562 3.890625 -14.4375 C 3.890625 -14.132812 3.785156 -13.878906 3.578125 -13.671875 C 3.378906 -13.460938 3.125 -13.359375 2.8125 -13.359375 Z "/>
</g>
<g id="glyph-0-9">
<path d="M 2.0625 0 L 2.0625 -10.9375 L 3.484375 -10.9375 L 3.484375 -7.9375 L 3.25 -8.484375 C 3.601562 -9.285156 4.15625 -9.910156 4.90625 -10.359375 C 5.664062 -10.816406 6.578125 -11.046875 7.640625 -11.046875 C 8.535156 -11.046875 9.316406 -10.875 9.984375 -10.53125 C 10.660156 -10.1875 11.1875 -9.664062 11.5625 -8.96875 C 11.945312 -8.269531 12.140625 -7.398438 12.140625 -6.359375 L 12.140625 0 L 10.65625 0 L 10.65625 -6.203125 C 10.65625 -7.359375 10.367188 -8.234375 9.796875 -8.828125 C 9.222656 -9.421875 8.414062 -9.71875 7.375 -9.71875 C 6.59375 -9.71875 5.910156 -9.554688 5.328125 -9.234375 C 4.753906 -8.921875 4.3125 -8.46875 4 -7.875 C 3.695312 -7.289062 3.546875 -6.582031 3.546875 -5.75 L 3.546875 0 Z "/>
</g>
</g>
</defs>
<g fill="rgb(100%, 100%, 100%)" fill-opacity="1">
<use xlink:href="#glyph-0-0" x="30" y="40.166016"/>
<use xlink:href="#glyph-0-1" x="47" y="40.166016"/>
<use xlink:href="#glyph-0-2" x="61" y="40.166016"/>
<use xlink:href="#glyph-0-3" x="69" y="40.166016"/>
<use xlink:href="#glyph-0-4" x="74" y="40.166016"/>
<use xlink:href="#glyph-0-5" x="87" y="40.166016"/>
<use xlink:href="#glyph-0-6" x="100" y="40.166016"/>
<use xlink:href="#glyph-0-1" x="106" y="40.166016"/>
<use xlink:href="#glyph-0-7" x="120" y="40.166016"/>
<use xlink:href="#glyph-0-8" x="128" y="40.166016"/>
<use xlink:href="#glyph-0-5" x="134" y="40.166016"/>
<use xlink:href="#glyph-0-9" x="147" y="40.166016"/>
</g>
</svg>
